<?xml version="1.0" encoding="UTF-8"?>
<svg xmlns="http://www.w3.org/2000/svg" viewBox="0 0 500 500">
  <g id="a"></g>
  <g id="b">
    <g>
      <circle cx="250" cy="154.05" r="89.91"></circle>
      <g>
        <path d="M218.19,94.13c.48,1.13,.95,2.32,1.39,3.49l.23,.58-.34,.36c-1.01,1.06-.86,2.34-.69,3.01,.33,1.28,1.3,2.42,2.4,2.85l.44,.18,.1,.42c.41,1.73,.86,3.47,1.3,5.15l3.22,14.68c7.67-3.3,16.11-5.08,24.69-5.08,7.26,0,14.41,1.25,21.26,3.71,.57,.2,1.12,.4,1.66,.6,.93-4.69,2.23-10.46,3.13-13.91,.44-1.68,.88-3.42,1.29-5.15l.1-.42,.44-.18c1.11-.43,2.07-1.57,2.4-2.85,.17-.67,.32-1.95-.69-3.01l-.33-.36,.22-.58c.44-1.16,.9-2.36,1.38-3.49,.3-.68,.62-1.29,.93-1.89,.15-.28,.29-.55,.42-.83-.53-.16-1.1-.26-1.69-.26-2.36,0-4.59,1.39-5.57,2.76-.11,.15-.2,.31-.29,.44-.31,.5-.66,1.07-1.45,1.39-.52,.21-1.02,.25-1.46,.28-.26,.02-.51,.04-.75,.1-1.61,.32-3.42,1.1-4.6,1.98-1.08,.8-2.15,1.79-2.18,3.08,1-.23,2.16-.1,3.22,.47,2.06,1.09,2.99,3.37,2.08,5.08-.65,1.23-2.09,1.83-3.61,1.66-.7-1.31-1.71-3.02-2.98-3.59-.4-.18-1.01-.37-1.49-.37s-1.08,.2-1.48,.37c-1.28,.57-2.29,2.3-2.99,3.62-1.33,0-2.53-.59-3.11-1.69-.91-1.71,.02-3.98,2.08-5.08,1.13-.6,2.36-.72,3.39-.43,.05-.02,.16-.23,.03-1.11-.19-1.3-1.57-2.91-2.7-3.54-.21-.13-.49-.24-.78-.36-.52-.22-1.06-.45-1.45-.83-.48-.47-1.85-4.29-3.88-5.19-.41-.18-1.01-.37-1.49-.37s-1.07,.2-1.48,.37c-2.02,.9-3.39,4.71-3.88,5.19-.38,.37-.93,.61-1.46,.83-.28,.12-.56,.23-.77,.36-1.13,.64-2.51,2.24-2.7,3.54-.14,.93,0,1.12,.04,1.12,.03,0,.06,0,.11,0,1.03-.29,2.26-.17,3.38,.43,2.06,1.09,2.99,3.37,2.08,5.08-.57,1.06-1.71,1.65-2.99,1.69-.7-1.33-1.74-3.15-3.05-3.73-.41-.18-1.01-.37-1.49-.37s-1.08,.2-1.48,.37c-1.3,.58-2.34,2.37-3.03,3.7-1.52,.17-2.96-.43-3.62-1.66-.91-1.71,.02-3.98,2.08-5.08,1.03-.55,2.15-.7,3.12-.5-.05-1.28-1.12-2.26-2.18-3.06-1.18-.88-2.99-1.67-4.6-1.98-.25-.05-.48-.08-.75-.1-.44-.03-.94-.07-1.46-.28-.79-.32-1.14-.89-1.46-1.39-.08-.13-.18-.29-.29-.44-.98-1.37-3.22-2.76-5.57-2.76-.58,0-1.15,.09-1.69,.26,.14,.28,.28,.54,.42,.83,.31,.59,.63,1.21,.92,1.89h0Z" fill="#b09c41"></path>
        <path d="M290.45,177.51c.91-3.08,3.19-6.91,5.13-9.32,.09-.11,.19-.23,.18-.25-.02-.03,0,0-.2,.1-.88,.49-5.77,2.2-13.17,1.02-6.95-1.11-11.16-5.49-20.37-8.06-8.21-2.28-16.6-2.78-22.42,3.07-2.78,2.79-3.47,7.27-2.44,11.2,1.9,7.22,10.79,9.36,10.72,9.11-.16-.63-.48-1.52-.63-3.17-.85-9.77,14.27-16.33,23.23-7.88,5.79,5.46,5.32,22.73-1.54,28.12-12.62,9.93-40.61,3.71-44.26-25.89-2.77-22.45,9.99-44.71,34.95-39.56,11.89,2.45,13.85,14.02,21.81,15.54,9.47,1.8,14.28-10.72,10.66-19.49-6.23,6.59-11.94,2.46-23.9-2.14-30.61-11.79-64.46,9.92-64,42.51,.16,11.52,4.26,22.05,11.29,30.1,5.22,6.03,12.07,10.77,20.07,13.36,4.12,1.36,8.49,2.16,13.03,2.3,16.73,.92,29.56-5.69,44.91-13.39-1.32-1.97-2.36-4.18-3.08-6.62-.19-.63-.46-1.92-.69-3.04-.22-1.11-.39-2.05-.39-2.05-.54-3.34-.58-6.97,0-10.5,.24-1.76,.59-3.45,1.08-5.06h0Z" fill="#fff"></path>
      </g>
    </g>
    <rect x="139.39" y="272.92" width="221.22" height="1"></rect>
    <g>
      <path d="M53.56,395.07c.51-.1,1.21-.18,2.13-.24s1.83-.09,2.76-.09c1.15,0,2.21,.1,3.16,.3,.95,.2,1.77,.53,2.45,.99,.68,.46,1.2,1.04,1.58,1.76,.37,.72,.56,1.59,.56,2.63,0,.63-.1,1.21-.29,1.75-.19,.54-.45,1.01-.77,1.43-.32,.42-.7,.76-1.12,1.03s-.86,.47-1.31,.59c.57,.06,1.14,.21,1.72,.46,.58,.24,1.1,.59,1.56,1.03,.46,.45,.84,1.01,1.14,1.69,.29,.68,.44,1.5,.44,2.48,0,1.17-.23,2.17-.7,2.99-.47,.82-1.1,1.48-1.9,1.99-.8,.51-1.74,.87-2.83,1.09s-2.24,.33-3.48,.33c-.77,0-1.61-.04-2.52-.11-.91-.07-1.77-.16-2.58-.26v-21.84Zm5.29,9.11c1.38,0,2.43-.3,3.16-.9,.73-.6,1.09-1.49,1.09-2.69s-.39-2.01-1.17-2.58c-.78-.57-1.84-.85-3.17-.85-.41,0-.79,.01-1.17,.03-.38,.02-.69,.05-.96,.09v6.89h2.22Zm-2.22,10.33c.28,.04,.64,.07,1.08,.09,.43,.02,.87,.03,1.29,.03,.73,0,1.41-.06,2.05-.18,.64-.12,1.2-.33,1.69-.62,.49-.29,.87-.69,1.15-1.18,.28-.5,.42-1.13,.42-1.9s-.13-1.38-.39-1.9c-.26-.52-.62-.93-1.08-1.25-.46-.31-1-.54-1.62-.67-.63-.13-1.31-.2-2.04-.2h-2.55v7.78Z"></path>
      <path d="M71.93,401.33c.22-.04,.48-.07,.76-.09s.53-.03,.73-.03c.22,0,.48,.01,.76,.03s.54,.05,.76,.09v8.53c0,.97,.09,1.78,.27,2.41,.18,.64,.46,1.14,.82,1.5,.37,.36,.81,.62,1.34,.76,.53,.14,1.13,.21,1.82,.21,1.03,0,1.91-.11,2.64-.33v-13.09c.22-.04,.47-.07,.74-.09s.52-.03,.74-.03,.47,.01,.74,.03,.52,.05,.74,.09v15.1c-.71,.2-1.55,.39-2.54,.58-.98,.18-2,.27-3.05,.27-.99,0-1.93-.09-2.81-.26s-1.66-.52-2.32-1.05c-.67-.53-1.2-1.27-1.58-2.22-.38-.95-.58-2.21-.58-3.77v-8.66Zm1.94-2.76c-.04-.26-.07-.52-.09-.76-.02-.24-.03-.5-.03-.76,0-.24,0-.49,.03-.74,.02-.25,.05-.51,.09-.77,.24-.04,.5-.07,.77-.09,.27-.02,.53-.03,.77-.03,.22,0,.47,.01,.74,.03,.27,.02,.54,.05,.81,.09,.08,.47,.12,.97,.12,1.52,0,.24-.01,.49-.03,.74-.02,.25-.05,.51-.09,.77-.53,.06-1.04,.09-1.55,.09-.22,0-.48,0-.76-.02-.28,0-.55-.04-.79-.08Zm6.2,0c-.08-.47-.12-.97-.12-1.52,0-.24,.01-.49,.03-.74,.02-.25,.05-.51,.09-.77,.24-.04,.5-.07,.77-.09,.27-.02,.52-.03,.74-.03,.24,0,.5,.01,.77,.03,.27,.02,.54,.05,.8,.09,.06,.53,.09,1.03,.09,1.52s-.03,1.01-.09,1.52c-.53,.06-1.04,.09-1.55,.09-.22,0-.48,0-.76-.02-.28,0-.55-.04-.79-.08Z"></path>
      <path d="M90.3,401.33c.22-.04,.44-.07,.64-.09s.42-.03,.64-.03,.44,.01,.67,.03c.22,.02,.42,.05,.61,.09,.06,.3,.12,.7,.18,1.2,.06,.5,.09,.92,.09,1.26,.42-.69,.99-1.29,1.69-1.79,.7-.51,1.59-.76,2.69-.76,.16,0,.33,0,.5,.02s.32,.03,.44,.05c.04,.18,.07,.38,.09,.58,.02,.2,.03,.42,.03,.64,0,.24-.02,.5-.05,.76-.03,.26-.07,.52-.11,.76-.16-.04-.33-.06-.5-.06h-.41c-.55,0-1.07,.08-1.56,.23-.5,.15-.94,.42-1.34,.81-.39,.38-.71,.91-.94,1.58-.23,.67-.35,1.53-.35,2.58v7.75c-.22,.04-.47,.07-.74,.09-.27,.02-.52,.03-.74,.03s-.47-.01-.74-.03c-.27-.02-.53-.05-.77-.09v-15.58Z"></path>
      <path d="M110.56,414.91c1.8,.04,3.11,.42,3.92,1.15s1.21,1.73,1.21,3.01c0,.83-.21,1.57-.64,2.23-.42,.66-1.01,1.23-1.76,1.7-.75,.48-1.63,.84-2.66,1.09-1.02,.25-2.13,.38-3.33,.38-2.08,0-3.67-.32-4.77-.97-1.09-.65-1.64-1.67-1.64-3.07,0-.83,.22-1.57,.67-2.23,.45-.66,1.02-1.18,1.73-1.56-.41-.26-.74-.59-1.02-.99-.27-.4-.41-.89-.41-1.47,0-.75,.17-1.4,.5-1.94,.33-.55,.79-1.03,1.35-1.46-.67-.47-1.2-1.07-1.61-1.81-.41-.74-.61-1.57-.61-2.51,0-.77,.14-1.49,.42-2.16,.28-.67,.69-1.25,1.23-1.75,.54-.5,1.2-.89,1.99-1.17,.79-.28,1.69-.43,2.7-.43,.91,0,1.74,.13,2.48,.4s1.37,.6,1.9,1c.4-.32,.95-.59,1.64-.8,.69-.21,1.45-.32,2.28-.32,.08,.38,.12,.81,.12,1.28,0,.22-.01,.46-.03,.7-.02,.24-.05,.49-.09,.73h-2.73c.22,.34,.39,.72,.52,1.12,.12,.41,.18,.87,.18,1.4,0,.83-.15,1.58-.46,2.25-.3,.67-.73,1.24-1.29,1.72-.56,.48-1.22,.84-1.99,1.09-.77,.25-1.61,.38-2.52,.38-.83,0-1.58-.09-2.25-.27-.28,.16-.56,.41-.84,.74s-.41,.69-.41,1.08c0,.36,.13,.68,.39,.96,.26,.27,.85,.42,1.76,.44l4.04,.06Zm-4.1,2.4c-.91-.02-1.59,.22-2.05,.73-.46,.51-.68,1.11-.68,1.82,0,.44,.09,.81,.27,1.09,.18,.28,.44,.51,.77,.68s.73,.29,1.18,.36c.46,.07,.96,.11,1.5,.11,1.62,0,2.88-.27,3.8-.81,.91-.54,1.37-1.21,1.37-2.02,0-.61-.19-1.07-.58-1.4s-1.09-.5-2.13-.52l-3.46-.06Zm1.4-7.59c1.09,0,1.9-.3,2.43-.91s.79-1.39,.79-2.34-.26-1.77-.79-2.38-1.34-.93-2.43-.93-1.9,.31-2.41,.93c-.52,.62-.77,1.41-.77,2.38s.26,1.73,.77,2.34c.52,.61,1.32,.91,2.41,.91Z"></path>
      <path d="M121.71,409.86c.04,1.7,.48,2.95,1.32,3.74,.84,.79,2.08,1.18,3.72,1.18,1.44,0,2.8-.25,4.1-.76,.16,.3,.29,.67,.4,1.11,.1,.44,.16,.87,.18,1.29-.67,.28-1.4,.5-2.2,.64-.8,.14-1.69,.21-2.66,.21-1.42,0-2.63-.2-3.64-.59-1.01-.39-1.85-.95-2.51-1.67-.66-.72-1.14-1.57-1.44-2.55-.3-.98-.46-2.06-.46-3.23s.15-2.23,.44-3.23c.29-1,.74-1.87,1.35-2.61,.61-.74,1.37-1.33,2.29-1.76,.92-.44,2.01-.65,3.27-.65,1.07,0,2.01,.18,2.82,.55,.81,.36,1.49,.87,2.04,1.5,.55,.64,.96,1.4,1.25,2.28,.28,.88,.42,1.84,.42,2.87,0,.28,0,.58-.03,.9s-.04,.58-.06,.8h-10.6Zm7.71-2.25c0-.57-.08-1.11-.23-1.62-.15-.52-.38-.97-.67-1.35-.29-.38-.67-.69-1.12-.93-.46-.23-1-.35-1.62-.35-1.24,0-2.18,.38-2.84,1.12-.66,.75-1.06,1.79-1.2,3.13h7.68Z"></path>
      <path d="M137.11,401.33c.22-.04,.43-.07,.64-.09,.2-.02,.42-.03,.64-.03s.45,.01,.67,.03,.43,.05,.61,.09c.06,.3,.12,.7,.18,1.2,.06,.5,.09,.92,.09,1.26,.43-.69,.99-1.29,1.69-1.79,.7-.51,1.59-.76,2.69-.76,.16,0,.33,0,.5,.02s.32,.03,.44,.05c.04,.18,.07,.38,.09,.58,.02,.2,.03,.42,.03,.64,0,.24-.01,.5-.04,.76-.03,.26-.07,.52-.11,.76-.16-.04-.33-.06-.5-.06h-.41c-.55,0-1.07,.08-1.56,.23s-.94,.42-1.34,.81c-.4,.38-.71,.91-.94,1.58-.23,.67-.35,1.53-.35,2.58v7.75c-.22,.04-.47,.07-.74,.09-.27,.02-.52,.03-.74,.03s-.47-.01-.74-.03c-.27-.02-.53-.05-.77-.09v-15.58Z"></path>
      <path d="M149.14,394.65c.22-.04,.47-.07,.74-.09,.27-.02,.52-.03,.74-.03s.48,.01,.76,.03c.28,.02,.54,.05,.76,.09v8.56c.36-.61,.93-1.13,1.7-1.58,.77-.44,1.7-.67,2.79-.67,.93,0,1.79,.15,2.58,.46,.79,.3,1.47,.77,2.04,1.41,.57,.64,1.01,1.45,1.32,2.43,.31,.98,.47,2.14,.47,3.48,0,2.67-.75,4.76-2.26,6.27-1.51,1.51-3.68,2.26-6.51,2.26-.89,0-1.81-.09-2.75-.26s-1.74-.37-2.38-.59v-21.78Zm3.01,19.74c.36,.12,.75,.21,1.17,.26,.42,.05,.85,.08,1.29,.08,.75,0,1.44-.12,2.08-.35,.64-.23,1.19-.59,1.66-1.06,.47-.48,.84-1.08,1.11-1.82,.27-.74,.41-1.61,.41-2.63,0-1.68-.29-2.99-.88-3.92-.59-.93-1.56-1.4-2.92-1.4-.47,0-.93,.08-1.38,.23-.46,.15-.88,.39-1.26,.73-.38,.33-.69,.78-.93,1.34-.23,.56-.35,1.23-.35,2.02v6.53Z"></path>
      <path d="M170.09,409.86c.04,1.7,.48,2.95,1.32,3.74s2.08,1.18,3.72,1.18c1.44,0,2.8-.25,4.1-.76,.16,.3,.29,.67,.39,1.11,.1,.44,.16,.87,.18,1.29-.67,.28-1.4,.5-2.2,.64-.8,.14-1.69,.21-2.66,.21-1.42,0-2.63-.2-3.64-.59-1.01-.39-1.85-.95-2.5-1.67-.66-.72-1.14-1.57-1.44-2.55-.3-.98-.46-2.06-.46-3.23s.15-2.23,.44-3.23c.29-1,.74-1.87,1.35-2.61,.61-.74,1.37-1.33,2.29-1.76,.92-.44,2.01-.65,3.26-.65,1.07,0,2.01,.18,2.83,.55,.81,.36,1.49,.87,2.03,1.5,.55,.64,.96,1.4,1.25,2.28,.28,.88,.43,1.84,.43,2.87,0,.28-.01,.58-.03,.9-.02,.31-.04,.58-.06,.8h-10.6Zm7.71-2.25c0-.57-.08-1.11-.23-1.62-.15-.52-.38-.97-.67-1.35-.29-.38-.67-.69-1.12-.93-.46-.23-1-.35-1.62-.35-1.24,0-2.18,.38-2.84,1.12-.66,.75-1.06,1.79-1.2,3.13h7.68Z"></path>
      <path d="M186.07,403.73h-2.37l-.12-.43,5.22-5.83h.24v3.86h3.95c.08,.34,.12,.73,.12,1.15,0,.22-.01,.44-.03,.64-.02,.2-.05,.41-.09,.61h-3.95v7.11c0,.85,.04,1.53,.11,2.03,.07,.51,.19,.9,.36,1.17s.41,.46,.7,.55c.29,.09,.66,.14,1.11,.14,.34,0,.67-.02,.97-.08,.3-.05,.58-.11,.82-.17,.14,.41,.23,.82,.26,1.25s.05,.8,.05,1.12c-.41,.1-.83,.18-1.28,.23-.45,.05-.92,.08-1.43,.08-1.46,0-2.6-.35-3.42-1.06s-1.23-1.88-1.23-3.52v-8.84Z"></path>
      <path d="M199.37,409.86c.04,1.7,.48,2.95,1.32,3.74s2.08,1.18,3.72,1.18c1.44,0,2.8-.25,4.1-.76,.16,.3,.29,.67,.39,1.11,.1,.44,.16,.87,.18,1.29-.67,.28-1.4,.5-2.2,.64-.8,.14-1.69,.21-2.66,.21-1.42,0-2.63-.2-3.64-.59-1.01-.39-1.85-.95-2.5-1.67-.66-.72-1.14-1.57-1.44-2.55-.3-.98-.46-2.06-.46-3.23s.15-2.23,.44-3.23c.29-1,.74-1.87,1.35-2.61,.61-.74,1.37-1.33,2.29-1.76,.92-.44,2.01-.65,3.26-.65,1.07,0,2.01,.18,2.83,.55,.81,.36,1.49,.87,2.03,1.5,.55,.64,.96,1.4,1.25,2.28,.28,.88,.43,1.84,.43,2.87,0,.28-.01,.58-.03,.9-.02,.31-.04,.58-.06,.8h-10.6Zm7.71-2.25c0-.57-.08-1.11-.23-1.62-.15-.52-.38-.97-.67-1.35-.29-.38-.67-.69-1.12-.93-.46-.23-1-.35-1.62-.35-1.24,0-2.18,.38-2.84,1.12-.66,.75-1.06,1.79-1.2,3.13h7.68Z"></path>
      <path d="M215.68,403.7h-1.97c-.04-.16-.07-.35-.09-.56-.02-.21-.03-.42-.03-.62s.01-.41,.03-.62c.02-.21,.05-.4,.09-.56h4.92v15.58c-.22,.04-.47,.07-.74,.09-.27,.02-.52,.03-.74,.03-.2,0-.44-.01-.71-.03-.27-.02-.52-.05-.74-.09v-13.21Zm-.67-5.8c-.04-.24-.07-.51-.08-.79,0-.28-.01-.54-.01-.76s0-.48,.01-.76c.01-.28,.04-.54,.08-.76,.26-.04,.55-.07,.85-.09,.3-.02,.57-.03,.79-.03s.49,.01,.79,.03c.3,.02,.58,.05,.82,.09,.04,.22,.07,.48,.08,.76,0,.28,.01,.54,.01,.76s0,.48-.01,.76c-.01,.28-.04,.55-.08,.79-.24,.04-.51,.07-.8,.09-.29,.02-.55,.03-.77,.03-.24,0-.52,0-.82-.03-.3-.02-.59-.05-.85-.09Z"></path>
      <path d="M224.21,394.65c.22-.04,.47-.07,.74-.09,.27-.02,.52-.03,.74-.03s.47,.01,.74,.03c.27,.02,.52,.05,.74,.09v17.56c0,.57,.05,1.01,.15,1.34,.1,.32,.24,.57,.41,.74s.38,.28,.61,.33c.23,.05,.48,.08,.74,.08,.18,0,.39,0,.62-.03,.23-.02,.43-.05,.59-.09,.18,.71,.27,1.48,.27,2.31-.28,.1-.63,.17-1.03,.2-.41,.03-.78,.05-1.12,.05-.59,0-1.13-.07-1.64-.21-.51-.14-.95-.37-1.34-.7-.38-.32-.69-.76-.91-1.31-.22-.55-.33-1.23-.33-2.04v-18.22Z"></path>
      <path d="M235,403.7h-1.97c-.04-.16-.07-.35-.09-.56-.02-.21-.03-.42-.03-.62s0-.41,.03-.62c.02-.21,.05-.4,.09-.56h4.92v15.58c-.22,.04-.47,.07-.74,.09-.27,.02-.52,.03-.74,.03-.2,0-.44-.01-.71-.03-.27-.02-.52-.05-.74-.09v-13.21Zm-.67-5.8c-.04-.24-.07-.51-.08-.79-.01-.28-.02-.54-.02-.76s0-.48,.02-.76c0-.28,.04-.54,.08-.76,.26-.04,.55-.07,.85-.09,.3-.02,.57-.03,.79-.03s.49,.01,.79,.03c.3,.02,.58,.05,.82,.09,.04,.22,.07,.48,.08,.76,0,.28,.02,.54,.02,.76s0,.48-.02,.76c0,.28-.04,.55-.08,.79-.24,.04-.51,.07-.8,.09-.29,.02-.55,.03-.77,.03-.24,0-.52,0-.82-.03-.3-.02-.59-.05-.85-.09Z"></path>
      <path d="M251.94,414.91c1.8,.04,3.11,.42,3.92,1.15s1.21,1.73,1.21,3.01c0,.83-.21,1.57-.64,2.23-.42,.66-1.01,1.23-1.76,1.7-.75,.48-1.63,.84-2.66,1.09-1.02,.25-2.13,.38-3.33,.38-2.08,0-3.67-.32-4.77-.97-1.09-.65-1.64-1.67-1.64-3.07,0-.83,.22-1.57,.67-2.23,.45-.66,1.02-1.18,1.73-1.56-.41-.26-.74-.59-1.02-.99-.27-.4-.41-.89-.41-1.47,0-.75,.17-1.4,.5-1.94,.33-.55,.79-1.03,1.35-1.46-.67-.47-1.2-1.07-1.61-1.81-.41-.74-.61-1.57-.61-2.51,0-.77,.14-1.49,.42-2.16,.28-.67,.69-1.25,1.23-1.75,.54-.5,1.2-.89,1.99-1.17,.79-.28,1.69-.43,2.7-.43,.91,0,1.74,.13,2.48,.4s1.37,.6,1.9,1c.4-.32,.95-.59,1.64-.8,.69-.21,1.45-.32,2.28-.32,.08,.38,.12,.81,.12,1.28,0,.22-.01,.46-.03,.7-.02,.24-.05,.49-.09,.73h-2.73c.22,.34,.39,.72,.52,1.12,.12,.41,.18,.87,.18,1.4,0,.83-.15,1.58-.46,2.25-.3,.67-.73,1.24-1.29,1.72-.56,.48-1.22,.84-1.99,1.09-.77,.25-1.61,.38-2.52,.38-.83,0-1.58-.09-2.25-.27-.28,.16-.56,.41-.84,.74s-.41,.69-.41,1.08c0,.36,.13,.68,.39,.96,.26,.27,.85,.42,1.76,.44l4.04,.06Zm-4.1,2.4c-.91-.02-1.59,.22-2.05,.73-.46,.51-.68,1.11-.68,1.82,0,.44,.09,.81,.27,1.09,.18,.28,.44,.51,.77,.68s.73,.29,1.18,.36c.46,.07,.96,.11,1.5,.11,1.62,0,2.88-.27,3.8-.81,.91-.54,1.37-1.21,1.37-2.02,0-.61-.19-1.07-.58-1.4s-1.09-.5-2.13-.52l-3.46-.06Zm1.4-7.59c1.09,0,1.9-.3,2.43-.91s.79-1.39,.79-2.34-.26-1.77-.79-2.38-1.34-.93-2.43-.93-1.9,.31-2.41,.93c-.52,.62-.77,1.41-.77,2.38s.26,1.73,.77,2.34c.52,.61,1.32,.91,2.41,.91Z"></path>
      <path d="M260.96,401.33c.22-.04,.48-.07,.76-.09s.53-.03,.73-.03c.22,0,.48,.01,.76,.03s.54,.05,.76,.09v8.53c0,.97,.09,1.78,.27,2.41,.18,.64,.46,1.14,.82,1.5,.37,.36,.81,.62,1.34,.76,.53,.14,1.13,.21,1.82,.21,1.03,0,1.91-.11,2.64-.33v-13.09c.22-.04,.47-.07,.74-.09s.52-.03,.74-.03,.47,.01,.74,.03,.52,.05,.74,.09v15.1c-.71,.2-1.55,.39-2.54,.58-.98,.18-2,.27-3.05,.27-.99,0-1.93-.09-2.81-.26s-1.66-.52-2.32-1.05c-.67-.53-1.2-1.27-1.58-2.22-.38-.95-.58-2.21-.58-3.77v-8.66Z"></path>
      <path d="M279.34,401.33c.22-.04,.44-.07,.65-.09s.43-.03,.65-.03,.43,.01,.62,.03,.4,.05,.62,.09c.06,.3,.12,.71,.18,1.23,.06,.52,.09,.95,.09,1.29,.2-.34,.46-.69,.77-1.03,.31-.34,.67-.65,1.08-.93,.4-.27,.87-.5,1.4-.67,.53-.17,1.1-.26,1.73-.26,1.78,0,3.1,.51,3.95,1.53,.85,1.02,1.28,2.54,1.28,4.54v9.87c-.22,.04-.48,.07-.76,.09-.28,.02-.54,.03-.76,.03s-.47-.01-.74-.03c-.27-.02-.52-.05-.74-.09v-9.05c0-1.44-.22-2.5-.67-3.17s-1.15-1.02-2.13-1.02c-.57,0-1.1,.1-1.61,.3-.51,.2-.95,.52-1.34,.94-.39,.43-.69,.98-.93,1.66-.23,.68-.35,1.49-.35,2.44v7.9c-.22,.04-.47,.07-.74,.09-.27,.02-.52,.03-.74,.03s-.48-.01-.76-.03c-.28-.02-.54-.05-.76-.09v-15.58Z"></path>
      <path d="M306.01,414.91c1.8,.04,3.11,.42,3.92,1.15,.81,.73,1.21,1.73,1.21,3.01,0,.83-.21,1.57-.64,2.23-.43,.66-1.01,1.23-1.76,1.7-.75,.48-1.64,.84-2.66,1.09-1.02,.25-2.13,.38-3.33,.38-2.09,0-3.67-.32-4.77-.97-1.09-.65-1.64-1.67-1.64-3.07,0-.83,.22-1.57,.67-2.23,.45-.66,1.02-1.18,1.73-1.56-.41-.26-.74-.59-1.02-.99-.27-.4-.41-.89-.41-1.47,0-.75,.17-1.4,.5-1.94s.78-1.03,1.35-1.46c-.67-.47-1.21-1.07-1.61-1.81-.41-.74-.61-1.57-.61-2.51,0-.77,.14-1.49,.42-2.16,.28-.67,.69-1.25,1.23-1.75,.54-.5,1.2-.89,1.99-1.17,.79-.28,1.69-.43,2.7-.43,.91,0,1.74,.13,2.47,.4s1.37,.6,1.9,1c.41-.32,.95-.59,1.64-.8,.69-.21,1.45-.32,2.28-.32,.08,.38,.12,.81,.12,1.28,0,.22-.01,.46-.03,.7-.02,.24-.05,.49-.09,.73h-2.73c.22,.34,.39,.72,.52,1.12,.12,.41,.18,.87,.18,1.4,0,.83-.15,1.58-.46,2.25-.3,.67-.73,1.24-1.29,1.72-.56,.48-1.22,.84-1.99,1.09-.77,.25-1.61,.38-2.52,.38-.83,0-1.58-.09-2.25-.27-.28,.16-.56,.41-.83,.74s-.41,.69-.41,1.08c0,.36,.13,.68,.39,.96,.26,.27,.85,.42,1.76,.44l4.04,.06Zm-4.1,2.4c-.91-.02-1.59,.22-2.05,.73-.46,.51-.68,1.11-.68,1.82,0,.44,.09,.81,.27,1.09,.18,.28,.44,.51,.77,.68s.73,.29,1.18,.36c.46,.07,.96,.11,1.5,.11,1.62,0,2.89-.27,3.8-.81,.91-.54,1.37-1.21,1.37-2.02,0-.61-.19-1.07-.58-1.4-.39-.32-1.09-.5-2.13-.52l-3.46-.06Zm1.4-7.59c1.09,0,1.9-.3,2.43-.91,.53-.61,.79-1.39,.79-2.34s-.26-1.77-.79-2.38c-.53-.62-1.34-.93-2.43-.93s-1.9,.31-2.42,.93-.77,1.41-.77,2.38,.26,1.73,.77,2.34,1.32,.91,2.42,.91Z"></path>
      <path d="M324.08,403.7h-1.97c-.04-.16-.07-.35-.09-.56-.02-.21-.03-.42-.03-.62s.01-.41,.03-.62c.02-.21,.05-.4,.09-.56h4.92v15.58c-.22,.04-.47,.07-.74,.09-.27,.02-.52,.03-.74,.03-.2,0-.44-.01-.71-.03-.27-.02-.52-.05-.74-.09v-13.21Zm-.67-5.8c-.04-.24-.07-.51-.08-.79,0-.28-.01-.54-.01-.76s0-.48,.01-.76c.01-.28,.04-.54,.08-.76,.26-.04,.55-.07,.85-.09,.3-.02,.57-.03,.79-.03s.49,.01,.79,.03c.3,.02,.58,.05,.82,.09,.04,.22,.07,.48,.08,.76,0,.28,.01,.54,.01,.76s0,.48-.01,.76c-.01,.28-.04,.55-.08,.79-.24,.04-.51,.07-.8,.09-.29,.02-.55,.03-.77,.03-.24,0-.52,0-.82-.03-.3-.02-.59-.05-.85-.09Z"></path>
      <path d="M332.67,401.33c.22-.04,.44-.07,.65-.09,.21-.02,.43-.03,.65-.03s.43,.01,.62,.03c.19,.02,.4,.05,.62,.09,.06,.3,.12,.71,.18,1.23,.06,.52,.09,.95,.09,1.29,.2-.34,.46-.69,.77-1.03,.31-.34,.67-.65,1.08-.93s.87-.5,1.4-.67,1.1-.26,1.73-.26c1.78,0,3.1,.51,3.95,1.53,.85,1.02,1.28,2.54,1.28,4.54v9.87c-.22,.04-.48,.07-.76,.09-.28,.02-.54,.03-.76,.03s-.47-.01-.74-.03c-.27-.02-.52-.05-.74-.09v-9.05c0-1.44-.22-2.5-.67-3.17s-1.15-1.02-2.13-1.02c-.57,0-1.1,.1-1.61,.3-.51,.2-.95,.52-1.34,.94s-.69,.98-.93,1.66c-.23,.68-.35,1.49-.35,2.44v7.9c-.22,.04-.47,.07-.74,.09-.27,.02-.52,.03-.74,.03s-.48-.01-.76-.03c-.28-.02-.54-.05-.76-.09v-15.58Z"></path>
      <path d="M371.82,405.61c.24-.04,.5-.07,.76-.09,.26-.02,.53-.03,.79-.03s.53,.01,.79,.03c.26,.02,.51,.05,.73,.09v10.66c-.43,.18-.89,.34-1.4,.47-.51,.13-1.03,.23-1.58,.3-.55,.07-1.09,.13-1.64,.17-.55,.04-1.06,.06-1.55,.06-1.62,0-3.08-.25-4.37-.76-1.3-.51-2.39-1.24-3.28-2.2-.89-.96-1.57-2.13-2.05-3.51-.48-1.38-.71-2.94-.71-4.68s.24-3.32,.73-4.72c.49-1.41,1.18-2.61,2.08-3.6,.9-.99,1.97-1.76,3.22-2.29s2.63-.81,4.15-.81c1.15,0,2.16,.08,3.01,.23,.85,.15,1.62,.36,2.31,.62-.04,.47-.13,.9-.26,1.29-.13,.4-.29,.82-.47,1.26-.57-.18-1.18-.34-1.84-.49s-1.48-.21-2.48-.21c-1.07,0-2.05,.19-2.93,.58-.88,.38-1.63,.95-2.25,1.69-.62,.74-1.1,1.65-1.44,2.73-.34,1.08-.52,2.32-.52,3.72s.18,2.68,.53,3.72c.35,1.04,.86,1.91,1.5,2.61,.65,.7,1.41,1.21,2.29,1.55,.88,.33,1.86,.5,2.93,.5,.65,0,1.21-.04,1.7-.11,.49-.07,.9-.16,1.25-.26v-8.53Z"></path>
      <path d="M386.7,417.27c-1.21,0-2.28-.21-3.19-.62-.91-.41-1.67-.99-2.28-1.72s-1.06-1.59-1.35-2.58c-.29-.99-.44-2.07-.44-3.22s.15-2.23,.44-3.22c.29-.99,.74-1.85,1.35-2.58,.61-.73,1.37-1.31,2.28-1.73s1.97-.64,3.19-.64,2.28,.21,3.19,.64,1.67,1,2.28,1.73c.61,.73,1.06,1.59,1.35,2.58,.29,.99,.44,2.07,.44,3.22s-.15,2.23-.44,3.22c-.29,.99-.74,1.85-1.35,2.58s-1.37,1.3-2.28,1.72c-.91,.42-1.97,.62-3.19,.62Zm0-2.4c1.4,0,2.43-.51,3.1-1.52,.67-1.01,1-2.42,1-4.22s-.33-3.2-1-4.21c-.67-1-1.7-1.5-3.1-1.5s-2.42,.5-3.08,1.5c-.66,1-.99,2.4-.99,4.21s.33,3.21,.99,4.22c.66,1.01,1.69,1.52,3.08,1.52Z"></path>
      <path d="M398.4,414.09c.55,.22,1.15,.4,1.81,.53,.66,.13,1.31,.2,1.96,.2,.47,0,.91-.05,1.34-.15,.42-.1,.79-.25,1.11-.46,.31-.2,.57-.45,.76-.74,.19-.29,.29-.62,.29-.99,0-.4-.08-.74-.23-1-.15-.26-.35-.49-.61-.67-.25-.18-.55-.34-.88-.47-.33-.13-.69-.26-1.08-.38l-1.06-.4c-1.3-.49-2.24-1.03-2.82-1.64-.59-.61-.88-1.43-.88-2.46,0-1.38,.49-2.47,1.47-3.28,.98-.81,2.42-1.21,4.33-1.21,.79,0,1.56,.08,2.32,.23,.76,.15,1.42,.33,1.99,.53-.04,.41-.12,.81-.23,1.21-.11,.41-.25,.78-.41,1.12-.45-.16-.98-.32-1.59-.47-.62-.15-1.28-.23-1.99-.23-.75,0-1.41,.13-1.99,.39-.58,.26-.87,.73-.87,1.4,0,.34,.07,.64,.21,.88,.14,.24,.33,.45,.58,.62,.24,.17,.52,.32,.83,.44,.31,.12,.65,.24,1.02,.36l1.34,.46c.49,.16,.95,.35,1.38,.58,.44,.22,.81,.5,1.12,.84,.31,.33,.57,.74,.76,1.21,.19,.48,.29,1.05,.29,1.72,0,.75-.15,1.43-.46,2.05s-.73,1.14-1.29,1.58c-.56,.44-1.23,.77-2.02,1.02-.79,.24-1.66,.36-2.61,.36s-1.82-.07-2.55-.2c-.73-.13-1.41-.31-2.03-.53,.04-.4,.13-.81,.26-1.23,.13-.41,.28-.82,.44-1.23Z"></path>
      <path d="M413.19,394.65c.22-.04,.47-.07,.74-.09,.27-.02,.52-.03,.74-.03s.47,.01,.74,.03c.27,.02,.52,.05,.74,.09v17.56c0,.57,.05,1.01,.15,1.34s.24,.57,.41,.74,.37,.28,.61,.33c.23,.05,.48,.08,.74,.08,.18,0,.39,0,.62-.03,.23-.02,.43-.05,.59-.09,.18,.71,.27,1.48,.27,2.31-.28,.1-.63,.17-1.03,.2s-.78,.05-1.12,.05c-.59,0-1.13-.07-1.64-.21s-.95-.37-1.34-.7c-.38-.32-.69-.76-.91-1.31-.22-.55-.33-1.23-.33-2.04v-18.22Z"></path>
      <path d="M431.29,406.64c0-1.19-.3-2.02-.91-2.49-.61-.47-1.49-.7-2.64-.7-.71,0-1.37,.06-1.99,.17-.62,.11-1.22,.26-1.81,.44-.38-.67-.58-1.47-.58-2.4,.69-.22,1.45-.4,2.28-.52s1.63-.18,2.4-.18c2.02,0,3.56,.46,4.62,1.38,1.05,.92,1.58,2.39,1.58,4.42v9.75c-.71,.16-1.57,.33-2.58,.5-1.01,.17-2.05,.26-3.1,.26-.99,0-1.89-.09-2.69-.27-.8-.18-1.48-.48-2.04-.88-.56-.4-.99-.92-1.29-1.55-.3-.63-.46-1.39-.46-2.28s.18-1.63,.53-2.29c.35-.66,.84-1.2,1.44-1.64,.61-.44,1.31-.76,2.1-.97,.79-.21,1.62-.32,2.49-.32,.65,0,1.18,.02,1.59,.05,.41,.03,.76,.07,1.05,.11v-.58Zm0,2.95c-.3-.04-.69-.08-1.15-.12-.47-.04-.86-.06-1.18-.06-1.26,0-2.21,.23-2.87,.7-.66,.47-.99,1.17-.99,2.13,0,.61,.11,1.08,.33,1.43,.22,.34,.5,.61,.83,.79,.33,.18,.7,.29,1.11,.33,.4,.04,.79,.06,1.15,.06,.46,0,.95-.02,1.44-.08,.5-.05,.94-.13,1.32-.23v-4.95Z"></path>
      <path d="M439.52,401.33c.22-.04,.43-.07,.64-.09,.2-.02,.42-.03,.64-.03s.45,.01,.67,.03,.43,.05,.61,.09c.06,.3,.12,.7,.18,1.2,.06,.5,.09,.92,.09,1.26,.43-.69,.99-1.29,1.69-1.79,.7-.51,1.59-.76,2.69-.76,.16,0,.33,0,.5,.02s.32,.03,.44,.05c.04,.18,.07,.38,.09,.58,.02,.2,.03,.42,.03,.64,0,.24-.01,.5-.04,.76-.03,.26-.07,.52-.11,.76-.16-.04-.33-.06-.5-.06h-.41c-.55,0-1.07,.08-1.56,.23s-.94,.42-1.34,.81c-.4,.38-.71,.91-.94,1.58-.23,.67-.35,1.53-.35,2.58v7.75c-.22,.04-.47,.07-.74,.09-.27,.02-.52,.03-.74,.03s-.47-.01-.74-.03c-.27-.02-.53-.05-.77-.09v-15.58Z"></path>
    </g>
    <g>
      <g>
        <path d="M85.01,304.36c.66-.11,1.42-.19,2.28-.25,.85-.05,1.67-.08,2.44-.08s1.61,.03,2.52,.08c.91,.06,1.67,.14,2.28,.25l15.39,37.24,15.47-37.24c.55-.11,1.24-.19,2.07-.25,.83-.05,1.63-.08,2.4-.08,.72,0,1.52,.03,2.4,.08,.88,.06,1.63,.14,2.23,.25l2.81,59.49c-.66,.11-1.34,.19-2.03,.25-.69,.05-1.39,.08-2.11,.08s-1.42-.03-2.11-.08c-.69-.06-1.34-.14-1.95-.25l-1.9-46.26-14.56,33.93c-1.1,.17-2.23,.25-3.39,.25-1.05,0-2.1-.08-3.14-.25l-14.07-34.17-1.9,46.5c-.61,.11-1.24,.19-1.9,.25-.66,.05-1.3,.08-1.9,.08-.72,0-1.41-.03-2.07-.08-.66-.06-1.3-.14-1.9-.25l2.65-59.49Z"></path>
        <path d="M172.63,335.89c0-3.26-.83-5.52-2.48-6.79-1.65-1.27-4.05-1.9-7.2-1.9-1.93,0-3.74,.15-5.42,.46-1.68,.3-3.32,.7-4.92,1.2-1.05-1.82-1.57-4-1.57-6.54,1.87-.61,3.94-1.08,6.21-1.41,2.26-.33,4.44-.5,6.54-.5,5.52,0,9.71,1.25,12.58,3.76,2.87,2.51,4.3,6.52,4.3,12.04v26.56c-1.93,.44-4.28,.9-7.03,1.37-2.76,.47-5.57,.7-8.44,.7-2.7,0-5.14-.25-7.32-.74-2.18-.5-4.03-1.29-5.54-2.4-1.52-1.1-2.69-2.51-3.52-4.22-.83-1.71-1.24-3.78-1.24-6.21s.48-4.45,1.45-6.25c.96-1.79,2.28-3.28,3.93-4.47,1.65-1.19,3.56-2.07,5.71-2.65s4.41-.87,6.78-.87c1.77,0,3.21,.04,4.34,.12,1.13,.08,2.08,.18,2.86,.29v-1.57Zm0,8.03c-.83-.11-1.88-.22-3.14-.33-1.27-.11-2.35-.16-3.23-.16-3.42,0-6.03,.63-7.82,1.9-1.79,1.27-2.69,3.2-2.69,5.79,0,1.65,.3,2.95,.91,3.89,.61,.94,1.37,1.65,2.28,2.15,.91,.5,1.92,.8,3.02,.91,1.1,.11,2.15,.16,3.14,.16,1.27,0,2.58-.07,3.93-.21,1.35-.14,2.55-.34,3.6-.62v-13.49Z"></path>
        <path d="M221.29,356.49c.44,.77,.83,1.74,1.16,2.9,.33,1.16,.52,2.34,.58,3.56-3.26,1.27-6.98,1.9-11.17,1.9-7.06,0-12.39-2-15.97-6-3.59-4-5.38-9.39-5.38-16.18,0-3.14,.44-6.07,1.32-8.77,.88-2.7,2.19-5.05,3.93-7.03,1.74-1.99,3.9-3.56,6.5-4.72,2.59-1.16,5.6-1.74,9.02-1.74,2.32,0,4.36,.14,6.12,.41,1.77,.28,3.45,.72,5.05,1.32,0,.94-.12,2.03-.37,3.27-.25,1.24-.59,2.33-1.03,3.27-2.7-.94-5.79-1.41-9.27-1.41-4.25,0-7.42,1.41-9.52,4.22-2.1,2.81-3.14,6.54-3.14,11.17,0,5.3,1.19,9.17,3.56,11.63,2.37,2.46,5.63,3.68,9.76,3.68,1.65,0,3.19-.11,4.59-.33,1.41-.22,2.83-.61,4.26-1.16Z"></path>
        <path d="M232.46,303.2c.61-.11,1.28-.19,2.03-.25,.74-.05,1.42-.08,2.03-.08s1.3,.03,2.07,.08c.77,.06,1.46,.14,2.07,.25v24.66c.5-.77,1.12-1.6,1.86-2.48,.74-.88,1.66-1.7,2.73-2.44s2.32-1.35,3.72-1.82c1.41-.47,2.96-.7,4.67-.7,4.85,0,8.45,1.39,10.8,4.18,2.34,2.79,3.52,6.91,3.52,12.37v26.89c-.61,.11-1.28,.19-2.03,.25-.74,.05-1.42,.08-2.03,.08s-1.28-.03-2.03-.08c-.74-.06-1.42-.14-2.03-.25v-24.66c0-3.92-.65-6.8-1.94-8.65-1.3-1.85-3.27-2.77-5.92-2.77-1.49,0-2.92,.26-4.3,.79-1.38,.52-2.59,1.35-3.64,2.48-1.05,1.13-1.88,2.61-2.48,4.43-.61,1.82-.91,4.03-.91,6.62v21.76c-.61,.11-1.3,.19-2.07,.25-.77,.05-1.46,.08-2.07,.08-.55,0-1.21-.03-1.99-.08-.77-.06-1.46-.14-2.07-.25v-60.65Z"></path>
        <path d="M287.65,304.36c.66-.11,1.42-.19,2.28-.25,.85-.05,1.67-.08,2.44-.08s1.61,.03,2.52,.08c.91,.06,1.67,.14,2.28,.25l15.39,37.24,15.47-37.24c.55-.11,1.24-.19,2.07-.25,.83-.05,1.63-.08,2.4-.08,.72,0,1.52,.03,2.4,.08,.88,.06,1.63,.14,2.23,.25l2.81,59.49c-.66,.11-1.34,.19-2.03,.25-.69,.05-1.39,.08-2.11,.08s-1.42-.03-2.11-.08c-.69-.06-1.34-.14-1.95-.25l-1.9-46.26-14.56,33.93c-1.1,.17-2.23,.25-3.39,.25-1.05,0-2.1-.08-3.14-.25l-14.07-34.17-1.9,46.5c-.61,.11-1.24,.19-1.9,.25-.66,.05-1.3,.08-1.9,.08-.72,0-1.41-.03-2.07-.08-.66-.06-1.3-.14-1.9-.25l2.65-59.49Z"></path>
        <path d="M355.34,327.86h-5.38c-.11-.44-.19-.95-.25-1.53-.06-.58-.08-1.14-.08-1.7s.03-1.12,.08-1.7c.05-.58,.14-1.09,.25-1.53h13.4v42.45c-.61,.11-1.28,.19-2.03,.25-.74,.05-1.42,.08-2.03,.08-.55,0-1.2-.03-1.94-.08-.74-.06-1.42-.14-2.03-.25v-35.99Z"></path>
        <path d="M378.26,327.94h-6.45l-.33-1.16,14.23-15.89h.66v10.51h10.76c.22,.94,.33,1.99,.33,3.14,0,.61-.03,1.19-.08,1.74-.06,.55-.14,1.1-.25,1.65h-10.76v19.36c0,2.32,.1,4.17,.29,5.54,.19,1.38,.52,2.44,.99,3.19,.47,.74,1.1,1.24,1.9,1.49,.8,.25,1.81,.37,3.02,.37,.94,0,1.82-.07,2.65-.21,.83-.14,1.57-.29,2.23-.46,.39,1.1,.62,2.23,.7,3.39,.08,1.16,.12,2.18,.12,3.06-1.1,.28-2.26,.48-3.48,.62-1.21,.14-2.51,.21-3.89,.21-3.97,0-7.08-.97-9.31-2.9-2.23-1.93-3.35-5.13-3.35-9.6v-24.08Z"></path>
      </g>
      <g>
        <g>
          <path d="M407.32,304.36c.72-.11,1.42-.19,2.11-.25,.69-.05,1.39-.08,2.11-.08,.77,0,1.54,.03,2.32,.08,.77,.06,1.54,.14,2.32,.25l-.5,41.62c-1.27,.22-2.57,.33-3.89,.33-1.49,0-2.79-.11-3.89-.33l-.58-41.62Z" fill="#b09c41"></path>
          <circle cx="411.75" cy="358.62" r="5.89" fill="#b09c41"></circle>
        </g>
        <circle cx="357.94" cy="309.25" r="5.66" fill="#b09c41"></circle>
      </g>
    </g>
  </g>
</svg>
