<?xml version="1.0" encoding="UTF-8"?>
<svg id="Layer_1" xmlns="http://www.w3.org/2000/svg" xmlns:xlink="http://www.w3.org/1999/xlink" version="1.1" viewBox="0 0 193.6 249.2">
  <!-- Generator: Adobe Illustrator 29.8.1, SVG Export Plug-In . SVG Version: 2.1.1 Build 2)  -->
  <defs>
    <style>
      .st0 {
        fill: #b7d4e7;
      }

      .st1 {
        fill: #be8573;
      }

      .st2 {
        fill: #2f1610;
      }

      .st3 {
        fill: #f6f3ee;
      }

      .st4 {
        fill: #6a321d;
      }

      .st5 {
        fill: url(#linear-gradient2);
      }

      .st6 {
        fill: url(#linear-gradient1);
      }

      .st7 {
        fill: #f28825;
      }

      .st8 {
        fill: #25190f;
      }

      .st9 {
        fill: #3f2d2d;
      }

      .st10 {
        fill: url(#linear-gradient);
      }

      .st11 {
        fill: #ef7624;
      }

      .st12 {
        fill: #eded90;
      }

      .st13 {
        fill: #f3e1d1;
      }

      .st14 {
        fill: #b8a89a;
      }

      .st15 {
        fill: #271918;
      }

      .st16 {
        fill: #919c9a;
      }

      .st17 {
        fill: #cb5127;
      }

      .st18 {
        fill: #d6bcae;
      }

      .st19 {
        fill: #dbe1e7;
      }

      .st20 {
        fill: #dccbc2;
      }

      .st21 {
        fill: #fefefa;
      }

      .st22 {
        fill: #aa938f;
      }

      .st23 {
        fill: #8c351e;
      }

      .st24 {
        fill: #181110;
      }

      .st25 {
        fill: #2b2422;
      }

      .st26 {
        fill: #c4ada7;
      }

      .st27 {
        fill: #e56225;
      }

      .st28 {
        fill: #976d64;
      }

      .st29 {
        fill: #c73f27;
      }

      .st30 {
        fill: #89753c;
      }
    </style>
    <linearGradient id="linear-gradient" x1="443.9" y1="848.6" x2="453.9" y2="1577.5" gradientTransform="translate(-35 -243.5) scale(.3)" gradientUnits="userSpaceOnUse">
      <stop offset="0" stop-color="#9e6828"/>
      <stop offset=".4" stop-color="#ffd915"/>
      <stop offset=".4" stop-color="#ffd404"/>
      <stop offset="1" stop-color="#bd9a2f"/>
    </linearGradient>
    <linearGradient id="linear-gradient1" x1="147" y1="62.1" x2="127" y2="74.8" gradientUnits="userSpaceOnUse">
      <stop offset="0" stop-color="#ea5e26"/>
      <stop offset="1" stop-color="#c74327"/>
    </linearGradient>
    <linearGradient id="linear-gradient2" x1="147.9" y1="69.6" x2="134.6" y2="86.6" gradientUnits="userSpaceOnUse">
      <stop offset="0" stop-color="#d1c6c2"/>
      <stop offset="1" stop-color="#a69693"/>
    </linearGradient>
  </defs>
  <g id="Generative_Object">
    <path class="st10" d="M163.7,42l1.5-.6c31.9,44.9,6.7,92.9-18.2,134.2-10.6,17.6-26.6,43-40.5,57.8-4.8,5.1-5.1,7-10.6,1.7-.2-.1-.4-.7-.6-.9-25.5-26.2-63.5-90.7-72.6-126C12.5,68.4,35.1,24.7,74.2,11.7c-.2.7.6.6.6.8s-.8.5-.6,1.1c-.5.2-3.7,1-3.6,1.4C113.7,0,162.7,23.5,175.1,68c-1.7-8.8-6.2-18.6-11.3-26Z"/>
    <ellipse class="st19" cx="98.7" cy="89.8" rx="73.1" ry="69.2"/>
    <g>
      <path class="st30" d="M166.1,108.2c7.7-25,.6-49.8-17.8-67.8-1.3-1.2-2.3-2.2-3.6-3.3C92-6.9,13.8,44.1,35.5,109.7l-1.2.5C14,52.3,72.1-1.3,128.8,22.9s50.5,50.9,39.2,83c-.3.9-.6,2.6-1.8,2.3Z"/>
      <path class="st21" d="M163.7,42c5.2,7.4,9.6,17.2,11.3,26C162.7,23.5,113.7,0,70.5,14.9c0-.4,3.1-1.2,3.6-1.4,32.7-10.8,69.8,0,89.5,28.4Z"/>
      <g>
        <path class="st0" d="M144.7,37.1l-4.2,3.6c-2.2-2.1-6.6-4.8-9.4-6.4-9.2-5.3-19.2-8.1-29.9-8.2s-.4,0-.6,0c-31.1,0-40.9,15.8-58.7,37.1s-3.5,2.5-3.6,2.7c-3.9,4.9-3.8,26.3-2.7,32.7,13.3,81.6,142.9,65.1,130.1-21.5-.2-1.1-2.3-10.2-2.7-10.6s-.8.4-1.1.2c-7.2-6.8-12.7-14.1-18.6-21.9s.4-.3.3-.5l4.8-3.9c18.4,17.9,25.6,42.7,17.8,67.8-2.6,8.6-7.6,17.1-13.3,23.9-3.1-.3-5.3,3.8-7.7,5.7-22.6,18.7-52.1,22.3-78,7.9-8.2-4.6-14.4-11.3-21.6-16.9-4.4-6-7.6-12-10-19.1C13.8,44.1,92-6.9,144.7,37.1Z"/>
        <path class="st12" d="M152.8,132.1c-28.8,34.2-80.8,32.6-107.4-3.3,7.2,5.6,13.4,12.4,21.6,16.9,26,14.4,55.5,10.8,78-7.9,2.4-2,4.6-6.1,7.7-5.7Z"/>
        <path class="st21" d="M131,34.4l-1.7,4.5c-5.9-2.8-13.5-5.6-20-6.1s-4.8-.7-5.3,1.1l2.7.3c-1.4.6-3.1,1.1-4.5,1.7l1.2-3.5-2.7,2.7.3-8.9c10.7.1,20.8,2.9,29.9,8.2Z"/>
        <path class="st0" d="M148.3,40.5l-4.8,3.9c-.9-1.1-2-2.7-3-3.6l4.2-3.6c1.3,1.1,2.4,2.1,3.6,3.3Z"/>
      </g>
    </g>
    <g id="Generative_Object1" data-name="Generative_Object">
      <g>
        <path class="st27" d="M78.2,70c1.6,1.4,3.2,2.8,4.3,4.7,0,.4-.4,0-.4.1,0,.3,4.6,3.8,5.2,4s1.6,0,2.3.1c0,.5-.6.1-.8.3s.5.8-.8.6-1.7-1.1-1.9-1.1-.4.4-.6.4c-.3,0-.5-.6-.9-.3-.1.8.8,1.6,1,2.1s.4,2,.4,2.1,1.1,1.1,1.2,1.5c.5-1.3.8-.3,1.3-.3s1-.4,1.4-.4c1.5,0,.7.5.8.6s1.8-.4,2.1-.4c.6,0,0,.3.4.3s2-.6,2.6-.8.3-.5,1.1-.6.4.4.4.4c.3,0,1.8-.9,2.1-1,1.9-.4,9.7-1.2,11.1-.7s1.7,1.4,2.2,1.8.6-.1.9.2c1.6,1.5,2.9,5.3,4.5,7.2,2.8,3.4,7.5,5,11.6,4.9s.1-.4.3-.4c1.5,0,3.6-.1,4.8.8s4.5,6,5.3,8,.5,1.2.2,1.3l-.6-1c0,.3-.3.7-.6.6l-1-1.3c-2.1-3.1-3.7-3.7-7.2-4.2s-2.7-.1-4-.3c-4.1-.5-6.7-1.3-9.5-4.5s-2.2-3.7-2.4-3.8c-.6-.3-.9.5-1,.6s-.1-.2-.5-.1c-1.8-1.4-4.5-.4-6.6-.1l.4.4-3.4.7c-.8,0-.9.8-1.2.7s-.3-.6-.6-.7c-.7-.4-2.6,1.1-3.8,1.1.8-.8-.7-1.9-1.4-1.7s-1,1.4-1.1,1.4-1.5.2-1.8.3c-.5,0-.3-.8-.8.6l.6.3c-.9,0-2.9-1.6-2.5,0-.6-.2-1.1-1.3-1.7-1.4s-1.1.3-1.1.3-.5-.6-1.1-.7-1.4-.2-1.5-.1c-.3,1-.6,1.4-.5,2.6s.4.2.4.3c0,1,0,2,.1,2.9l.3-.8c.3,0,0,4,0,4.4s.5.1.6.1c.3.7-1.3,3.7-1.9,4.2-1.6,1.7-3.2,2.6-4.7,4v-.7c0,0-.8.6-.8.6l.9-2.3-1.9,2.4v-.8c1.4-1.6,1.2-1.6,2-3.4s.4,0,.6-.3.2-1.3,0-1.7c-.7,1.6-1.4,3.1-2.9,4.2l-.2-.3c.7,0,1-2.5.9-2.6-.2.3-2,3.5-2.3,2.9l2.9-5.6c.6-1.2.7-1.7.8-3.1s0-2.3,0-3.5c0-1.8-.3-3.5-.3-5.4s.5-4.9.4-7.2c.3-.4.2-1.3,0-1.8v-.3c-.3.2-.4.6-.6.8-.5,0,0-1.5.2-1.4.5.7.8-.2,1.1-.1s.6,1.2.9.6c.4-.6-.6-3.2-1-3.8s-2.1-1.8-2.1-1.9c0-.3.4,0,.3-.6s-1.3-1-1.5-1.2c.9,0-.1-1.4-.1-1.7,0-.7.3-.8.3-1,0-.3-.8-1.1.1-1Z"/>
        <path class="st7" d="M122,75.4c.7.4,3,2.4,3.6,3.1,1.3,1.3,2.5,3.2,2.9,5,1.1,4.3,0,6.9,4.2,10.2l2.2,2.5c-1.2-.9-3.3-.9-4.8-.8s-.2.4-.3.4c-4.2,0-8.8-1.5-11.6-4.9-1.6-1.9-2.8-5.7-4.5-7.2s-.9-.2-.9-.2c-.5-.4-1.6-1.6-2.2-1.8-1.5-.5-9.3.3-11.1.7s-1.8.9-2.1,1-.2-.4-.4-.4c-.8,0-.9.5-1.1.6-.7.2-2.1.7-2.6.8s.2-.4-.4-.3-1.9.5-2.1.4.7-.6-.8-.6-1.2.4-1.4.4c-.4,0-.7-1.1-1.3.3-.1-.3-1.1-1.3-1.2-1.5s-.4-1.9-.4-2.1c-.2-.5-1.1-1.3-1-2.1.4-.3.6.4.9.3s.3-.4.6-.4,1.7,1.1,1.9,1.1c1.2.1.6-.4.8-.6s.9.2.8-.3c5.7.4,5.5-.8,10.1-2.4s16.4-4.4,22.2-1.1Z"/>
        <path class="st11" d="M68.6,66.3c.6,0,1.2,0,1.8,0,0,.3-.5,1.6-.4,1.7,1.1.3,2.3,1.2,3.2,1.9s.9.7,1.3,1c.9.7,1.4,1.5,2.1,2.1s1,.5,1.4.8,1.5,1.1,1.5,1.2c0,.5-.3.3-.3.6s1.8,1.5,2.1,1.9,1.3,3.2,1,3.8c-.3.5-.8-.6-.9-.6-.3,0-.6.9-1.1.1-.2,0-.7,1.3-.2,1.4-.1.1-.3.8-.5.7.1-.8,0-.7-.2-1.1s-.4-.1-.7-.6c.5-.2,1.9-.9,2.1-1.4.5-1-1.1,0-1.3,0-3.2.2-7.3-3.2-10.9-2.8v-.6c2.3.6-.4-3.1-1-3.4s-3.7.2-4.2.6-.8.9-.8,1c0,.2.3.4.3.4s-.4.4-.4.4c-.1,1.8.6,1.6,1.9.9.1,0,.2.1.6.1l.5.8c-1-.3-1.3.3-1.9.4-1.9.4-7.1.7-8.8.3s-.5-.4-.6-.4c2.6-.9,4.7-2,6.5-4.1s2.4-3.8,3.9-5.1,3.1-2,4.2-2.1Z"/>
        <path class="st23" d="M74.9,95.5c1.1,1,2,1.7,3.2,2.5s.9.8,1.3,1c-.2.5-.4,1.1-.7,1.6-1.5,2.6-8.6,6.8-11.3,9l1.3-1.6-1.1.4,1.7-1.4h-1c0,.1,2.1-3.2,2.1-3.2l-3.6,3.3c.8-1.1,1.6-2.3,2.5-3.4,0-.1-.3,0-.4,0,.7-.8.9-1.3,1.4-2.2,1.8-3.8,1.9-7.4.6-11.4,1.7,2.3,1.9,3.5,4.2,5.6Z"/>
        <path class="st22" d="M79.4,81.7c-.6.7-1.1.8-1.7,1.7l-.5-.6c-.2.9-1.3.8-1.4.8-.5.3-.6,1.7-1.7.4-.4,1,.2,1.8-1,.6-.5.2-.2.8-.2.9s-1.2.2-1.3.6,1.2,3.2,1.4,3.6-.4,0-.3.3c.3.8.9,2.2,1.3,3s.3.9.3.9c.2.4,2.1,1.9.6,1.6-2.3-2.1-2.5-3.2-4.2-5.6-2.6-3.7-5-6.5-9.8-7s-3.1.2-4.7-.1c2.8,0,5.5-1,8.3-1,4.9,0,9,1.8,14.1-.7.3.4.3,0,.7.6Z"/>
        <path class="st13" d="M80.6,81.6c-.6.7,0,1.3,0,1.8,0,2.4-.4,4.8-.4,7.2-.4,0-.4.2-.4.5-.2,1.4,0,3.5.1,4.9v3.2c0,0,0,0-.1-.1-.5-1.2-1.5-2-2.1-3.1s-.7-2.2-1.1-3.3c-.3-1.2-.8-2.3-1.1-3.5h.3c0,.1-.1-1.5-.1-1.5l.7,1c.4.1.5-1.8.3-2.2.1-1,.4-2.2,1-3.1s1.1-1,1.7-1.7c.3.4.4.3.2,1.1.2,0,.4-.5.5-.7.2-.3.2-.6.5-.8v.3Z"/>
        <path class="st9" d="M78.7,109.6c-1.8,2.2-7.8,8.8-10.4,9.5s-.7-.3-1-.4-.2.5-.3.6c-.1,0,.2-1.1-.3-.3-.8-2.1,1.7-2,2.9-2.6s9.2-11.6,10.1-13.6l-2.9,5.6c.3.7,2.1-2.6,2.3-2.9.1,0-.2,2.6-.9,2.6l.2.3c1.5-1,2.3-2.5,2.9-4.2.1.5,0,1.3,0,1.7s-.4,0-.6.3c-.8,1.9-.6,1.8-1.9,3.4Z"/>
        <path class="st15" d="M68.8,103.6s-.3,0-.3.2c.2.2.3-.2.3-.2.1,0,.4,0,.4,0-.9,1.1-1.7,2.3-2.5,3.4s0,.5,0,.6c-.1.2-.7.3-1,.7-2.1,2.8-4.9,5.5-8.3,6.6-.2-.3.1-.3,0-.7s-.3,0-.3,0c-1-.9.6-1.2,1.1-1.8.9-.5,1.7-.8,2.6-1.5,3.2-2.5,6.1-7,9.4-9.6-.4,1-.7,1.4-1.4,2.2Z"/>
        <path class="st15" d="M80.5,110.4c-2.9,2.6-5.5,5.4-7.9,8.5-1.4,1.1-2.9,1.7-4.8,1.1s-.8-.8-1-.8c0,0,0-.2,0-.3.6-.8.2.3.3.3s.2-.6.3-.6c.3.1-.4.8,1,.4,2.5-.6,8.6-7.3,10.4-9.5v.8c0,0,1.9-2.4,1.9-2.4l-.9,2.3.9-.6v.7Z"/>
        <g>
          <path class="st6" d="M142,54c3,2.1,8.3,8.6,9.2,12.1s.4,3.1.4,4.5l-1.8-5.2c1.1,5.3-1,11.7-5.4,15.1-6.3,4.8-12.7.7-18.9-2.1-.6-.6-2.9-2.7-3.6-3.1,1.9-.3,3.5,1.2,5.2,1.7,4.2,1,11.4.5,10.7-5.4-.6-4.5-6.2-5.3-8.9-7.7s-1.6-1.9-2-2.6l3.8,2.2-2.5-3.6c.4.1,4.6,1.8,4.7,1.6l-3.3-3.5c2,.4,4.2.9,6.1,1.9l-3.3-3.6,5.9,1.5c-1.1-1.6-2.8-2.8-4.5-3.7,2.2.1,4.5,0,6.5,1l-4.7-2.9c.2-.3,4.5.8,4.9,1.3l-1.9-1.5c1.2.5,2.3,1.1,3.3,1.8Z"/>
          <g>
            <path class="st5" d="M151.2,66.1c.4,0,.6.7.7,1.1s0,.5.3.6c0,1.8.9,3.9.4,5.8.8,0,.8-1.4,1.5-1.6,0,0,0,0,0,.1,0,.2.1.3.1.4.3,2.5-.3,4.6-2.2,6.3l2.6-1.2c-.4,2.9-3.4,4.6-6.1,5.1,1.5.5,3.5-.2,4.8-.9-.6,2-3.5,2.8-5.5,2.9,1,.5,2.2.3,3.3.3-1.2,1.5-3.8,1.6-5.6,1.3l1.9.6c-2.7,2.1-6,.1-8.7-.9l3.7,2.6c-3.1.3-5.9-.9-8.1-3-.4.3.8,1.7.1,1.8s-3-2.1-3.2-2.8l.3,1.7c-1.4-.3-2.2-1.7-3.1-2.9-.5-1.8-1.7-3.7-2.9-5,6.1,2.8,12.6,6.9,18.9,2.1,4.4-3.4,6.4-9.8,5.4-15.1l1.8,5.2c0-1.5,0-3.1-.4-4.5Z"/>
            <path class="st3" d="M154.1,72c-.7.2-.7,1.6-1.5,1.6.5-1.8-.4-4-.4-5.8v-.3c.7,1,1.7,3.3,1.9,4.5Z"/>
            <path class="st3" d="M154.4,72.5h-.1c0,0-.1-.2-.1-.4.3,0,.2.3.3.4Z"/>
          </g>
          <path class="st13" d="M138.7,52.2l1.9,1.5c-.4-.6-4.8-1.6-4.9-1.3l4.7,2.9c-2-1-4.3-.9-6.5-1,1.7.9,3.4,2.1,4.5,3.7l-5.9-1.5,3.3,3.6c-1.8-1-4.1-1.5-6.1-1.9l3.3,3.5c-.1.2-4.3-1.5-4.7-1.6s-.9-.3-1.3-.4-.5.3-.6.3c-4.9-1.4-7.9-5.9-10.7-9.9,0-.1-.4-.5-.2-.7,5.4,5.6,12,1.3,18.4,1.7s3.3.6,4.8,1.3Z"/>
          <path class="st18" d="M128.2,60l2.5,3.6-3.8-2.2c.4.8,1.4,2.1,2,2.6-5.7-2.4-11.3-8-13.2-14.1,2.7,4,5.7,8.4,10.7,9.9s.2-.4.6-.3.9.3,1.3.4Z"/>
        </g>
        <path class="st24" d="M67.4,109.6c-1.3,1-6,5.7-6.9,6-1.5.4-5.1,0-3.8-2.2s1.1-.7,1.5-.9c-.6.6-2.2,1-1.1,1.8,0,.5,0,.2.3,0,.2.4-.1.4,0,.7,3.4-1.1,6.2-3.9,8.3-6.6s.8-.5,1-.7,0-.5,0-.6l3.6-3.3-2.1,3.3h1c0-.1-1.7,1.3-1.7,1.3l1.1-.4-1.3,1.6Z"/>
        <path class="st13" d="M76.6,92.7c.4,1.1.6,2.2,1.1,3.3s1.6,2,2.1,3.1c0,0-.3,0-.4-.1-.3-.2-.8-.7-1.3-1-.8-1.4-1.8-3-2.8-4.3.2-.7,0-1.4-.3-2.1.5-.8,1,1,1.5,1.1Z"/>
        <path class="st29" d="M78.2,70c-.9,0-.1.8-.1,1s-.4.3-.3,1,1,1.7.1,1.7c-.4-.3-1-.5-1.4-.8,0-.5.2-1,.3-1.5.5-.4.6-1.4.8-1.9.3,0,.4.4.6.6Z"/>
        <path class="st4" d="M54,77.5s.2.3.6.4v.6s-.5.3-.6.3l-2.9-.4c-.2-1.3,2.1-1,2.9-.8Z"/>
        <path class="st2" d="M54,78.8c-.3.3-.3.9-.7,1s-2.2-1-2.2-1.4l2.9.4Z"/>
        <path class="st18" d="M80.5,96c0,1.2.1,2.2,0,3.5-.2,0-.3-.2-.4-.3v-3.2c.1,0,0,.4,0,.4s.2-.4.3-.4Z"/>
        <path class="st17" d="M104,92.4c.1,0,.7.1.9,0,.5.3-3.8,1-2.5,1.4-4.2,1.3-7.3,4.5-10.8,7-.9.2-1.8.3-2.7.3-.7,2.4-2,3.6-3.7,5.3.7-.6,2.2-3.6,1.9-4.2s-.5,0-.6-.1c-.1-.4.2-4.4,0-4.4l-.3.8c-.2-1,0-2-.1-2.9s-.4-.1-.4-.3c-.1-1.1.2-1.6.5-2.6,0,0,1.3,0,1.5.1.6.1,1.1.7,1.1.7s.4-.4,1.1-.3,1.1,1.1,1.7,1.4c-.4-1.6,1.6,0,2.5,0l-.6-.3c.5-1.4.3-.5.8-.6s1.7-.2,1.8-.3,1-1.3,1.1-1.4c.7-.2,2.2.8,1.4,1.7,1.1,0,3-1.5,3.8-1.1s.5.7.6.7c.3,0,.3-.6,1.2-.7Z"/>
        <path class="st1" d="M113.6,91.5c-2.3.2-2.4.1-4.5,1.1s-.6.7-.6.7c0,0-.2-.2-.3-.1-2.8,1.5-5.1,3.7-7.9,5s-5.8,2.1-8.6,2.6c3.5-2.5,6.6-5.6,10.8-7-1.3-.3,3-1.1,2.5-1.4-.2.1-.8,0-.9,0l3.4-.7-.4-.4c2.1-.3,4.8-1.3,6.6.1Z"/>
        <path class="st9" d="M143.4,107.2c-.7.3.1.8,0,1.3-.4,1.4-1.3-1.8-1.4-2.1-1.2-2.4-2.9-5.6-4.3-7.8s-2.1-2.1-2.2-3.3c.6.3,2.2.4,2.7.7.9.5,4.9,9.7,5.2,11.1Z"/>
        <path class="st15" d="M135.5,95.4c.1,1.2,1.5,2.2,2.2,3.3,1.5,2.2,3.1,5.4,4.3,7.8s1,3.4,1.4,2.1-.7-1,0-1.3c.2.9.4,1.5.3,2.4-3.3,1.4-4-3.6-5.4-5.8l1,1.3c.3.1.6-.2.6-.6l.6,1c.3-.1-.1-1.2-.2-1.3-.8-2-3.7-6.7-5.3-8l-2.2-2.5c.8.6,1.9,1.3,2.8,1.7Z"/>
        <g>
          <path class="st29" d="M127,99.4c1.1,1,1.8,2.2,2.6,3.5,0,1-.2.7-1,1.3-2.4-2.3-5.7-.7-8.6-1-4.8-.5-9.8-5.6-11.6-9.9,0,0,.2-.5.6-.7,2.1-1,2.3-.9,4.5-1.1s.5.1.5.1c0,0,.4-.8,1-.6s1.9,3.2,2.4,3.8c2.7,3.2,5.4,4,9.5,4.5Z"/>
          <path class="st15" d="M131,99.7c0,3.1,5.5,10.6,4.2,13.2s-1.6.6-2,.5c-1.1-.3-1.7-3.6-2-4.6,0,0,.6.6.7.8l-.6-1.8c0-.5.3.2.3.2.4-.2-.4-1.1-.3-1.5,1.2,1.3,0-1.2-.3-1.8s-1-1.2-1.4-1.7c-.8-1.2-1.6-2.4-2.6-3.5,1.3.2,2.7,0,4,.3Z"/>
          <path class="st29" d="M131.1,108.7c-.8-1.3-1.3-3.4-2.5-4.6.8-.5,1.1-.3,1-1.3.4.5,1.1,1.1,1.4,1.7s1.4,3.1.3,1.8c0,.3.7,1.2.3,1.5s-.3-.7-.3-.2l.6,1.8c0-.2-.7-.7-.7-.8Z"/>
        </g>
        <path class="st18" d="M80.2,90.6c0,1.9.2,3.6.3,5.4-.2,0-.2.4-.3.4s0-.4-.2-.4c-.1-1.5-.3-3.5-.1-4.9s0-.5.4-.5Z"/>
        <path class="st17" d="M80.6,83.4c0-.5-.6-1.1,0-1.8.2.5.3,1.4,0,1.8Z"/>
        <path class="st27" d="M80.7,79.8c-1-.1-1.6.4-2.7.3s-4.4-1.9-6.1-2.4c-4.3-1.2-8.5.4-12.8.8s-3.4-.2-4.5,0v-.6c1.7.4,6.9.2,8.8-.3s1-.7,1.9-.4l-.5-.8c1.6,0,1.5-.3,2.7-.7s.7.3,1,0,.1-.2.3-.3c-.4-.8-.7-.9-1.4-1.3-2.2-1.3-4.6-.5-4.5,2.3.4,0,.8-.1,1.3,0-1.3.7-2.1.8-1.9-.9s.4-.4.4-.4-.4-.2-.3-.4.8-.9.8-1c.6-.4,3.6-1,4.2-.6s3.2,4,.9,3.4v.6c3.6-.5,7.7,3,10.9,2.8s1.8-1,1.3,0Z"/>
        <g>
          <path class="st15" d="M67.4,59c1.7,1.6,2.3,3.8,3.5,5.7,0,0,0,.1-.1.6-1.1,0-1.9.2-2.9-.3-1-1.4-1.4-3.7-1.1-5.4s0-.9.7-.6Z"/>
          <path class="st22" d="M66.3,58.5c-.7,2-.6,5.5,1.5,6.5s1.9.3,2.9.3c0,0,0,.2,0,.3l-2.1.7c-1.1.1-3.3,1.4-4.2,2.1,0-.2,0-.4,0-.6,1.3-1.2,1.1-1.5,1.1-3.1s-.3-3.3-.1-4.9c.3-.7,0-.9.8-1.4Z"/>
          <path class="st13" d="M65.6,64.7c-.6.4-.5,1.6-1.4,1.7,0-1.7.6-5,1.3-6.5-.1,1.6.2,3.3.1,4.9Z"/>
          <path class="st9" d="M67.4,59c-.6-.3-.6.1-.7.6-.3,1.7.1,4,1.1,5.4-2.1-1.1-2.2-4.6-1.5-6.5,0,0,0-.3,0-.3.5,0,.7.5,1,.8Z"/>
          <path class="st18" d="M65.6,64.7c0,1.6.2,1.9-1.1,3.1-.2-.7-.3-.6-.3-1.4.9-.1.8-1.3,1.4-1.7Z"/>
          <path class="st28" d="M70.7,65.6c0,.2-.2.5-.3.7-.6,0-1.2,0-1.8,0l2.1-.7Z"/>
        </g>
        <g>
          <path class="st13" d="M80.7,79.8c-.2.4-1.6,1.2-2.1,1.4-5.1,2.5-9.2.8-14.1.7s-5.5,1-8.3,1c-1.9-.4-2.2-1.5-2.9-3.1.4,0,.4-.7.7-1s.5-.3.6-.3c1.1-.2,3.2.1,4.5,0,4.3-.4,8.5-2,12.8-.8s4.6,2.2,6.1,2.4,1.7-.4,2.7-.3Z"/>
          <path class="st25" d="M64.7,79.1c.2.4-1.2,1.1-1.5,1.3-2.4,1.3-5.5,2.2-8.1,1.2,1.8.1,3.5,0,5.2-.3s3.2-1.4,4.5-2.1Z"/>
          <path class="st14" d="M55.9,79.6c.1,0,.4,0,.6,0-1.4.5,2.2.6,2.9.8-1.3.3-2.6-.1-3.8-.3.2,0,.4-.4.4-.4Z"/>
          <path class="st14" d="M55.8,79.2c.8,0,1.9,0,2.6.3-.8,0-1.9,0-2.6-.3Z"/>
        </g>
        <path class="st22" d="M75.3,93.7c1,1.3,1.9,2.9,2.8,4.3-1.2-.8-2.1-1.5-3.2-2.5,1.6.3-.4-1.2-.6-1.6s0-.5-.3-.9c.8-.7.8.1,1.3.7Z"/>
        <path class="st26" d="M77.7,83.4c-.5.8-.9,2.1-1,3.1,0-.1-1.3-1.8-1.5-1.7,0,1-.2,1.9,0,2.9l-1-.3c-.6.3.8,3.7.9,4.2s.4,1.4.3,2.1c-.4-.6-.5-1.4-1.3-.7-.3-.8-1-2.2-1.3-3s.3-.2.3-.3c-.1-.5-1.4-3.4-1.4-3.6,0-.4,1.2-.5,1.3-.6s-.2-.7.2-.9c1.2,1.2.6.4,1-.6,1.1,1.3,1.1,0,1.7-.4s1.2,0,1.4-.8l.5.6Z"/>
        <path class="st18" d="M75.2,87.7c0,.5.2,1,.3,1.5.3,1.2.8,2.3,1.1,3.5-.6,0-1-1.9-1.5-1.1-.1-.5-1.5-3.9-.9-4.2l1,.3Z"/>
        <path class="st20" d="M76.7,86.4c.1.4,0,2.4-.3,2.2l-.7-1v1.7c.1,0-.2-.1-.2-.1-.1-.5-.2-1-.3-1.5,0-1,0-1.9,0-2.9.2-.2,1.4,1.5,1.5,1.7Z"/>
        <g>
          <path class="st24" d="M77.7,69.5c-.2.6-.3,1.6-.8,1.9.9-3.9,1.3-7.5-.5-11.3-.6-.1-4.4,3.2-4.9,3.9,1.2-2.2,3-4.3,5.5-5.2,1.3,3.8,2,6.7.8,10.6Z"/>
          <g>
            <path class="st13" d="M76.8,71.4c-.1.5-.2,1-.3,1.5-.7-.6-1.2-1.4-2.1-2.1-1.2-1.5.9-2.2,1-2.4,0-.3-.8-.6.3-.7l-1-.4c.3-.4.6-.4,1.1-.3l-1.1-.4,1-.6h-.8c0-.1.7-.6.7-.6-.2-.6-1.4.4-1.5.1.4-.5,1-.6,1.7-.7-.2-.4-.9-.3-1.3-.1,0-.4.5-.5.7-.6-.4.2.6.2.6,0,0,0-.5-.1-.6,0,.2-.2.9-.4.8-.7l-1.3.5c.1,0,1.8-.9,1.2-1.2l-2,1h.7c0,.1-1,.6-1,.6h.8c0,0-1.6.8-1.6.8h1.3c0,.1-1.1.7-1.1.7,1.7,0,.3.1,0,.9l1-.2-1.3,1,.9-.5-.3.6,1.2-.2c-1.2.5-1.6,1.1-1.3,2.4-.9-.7-2.1-1.5-3.2-1.9,0-.1.3-1.5.4-1.7s.2-.5.3-.7,0-.2,0-.3c.2-.4.1-.5.1-.6,0,0,.4-.5.6-.7.5-.7,4.3-4,4.9-3.9,1.7,3.8,1.4,7.3.5,11.3Z"/>
            <path class="st8" d="M75.2,64.2c-.2.1-.7.2-.7.6.3-.2,1-.3,1.3.1-.6,0-1.2.2-1.7.7,0,.2,1.3-.7,1.5-.1l-.7.4h.8c0,.1-1,.7-1,.7l1.1.4c-.5-.1-.8-.2-1.1.3l1,.4c-1.1.1-.2.4-.3.7s-2.1.9-1,2.4c-.4-.3-.8-.7-1.3-1-.4-1.4,0-1.9,1.3-2.4l-1.2.2.3-.6-.9.5,1.3-1-1,.2c.2-.8,1.6-.9,0-.9l1.1-.6h-1.3c0-.1,1.6-.9,1.6-.9h-.8c0,0,1-.5,1-.5h-.7c0-.1,2-1.2,2-1.2.6.3-1.1,1.1-1.2,1.2l1.3-.5c.1.3-.5.5-.8.7Z"/>
            <path class="st24" d="M75.7,61.7c.4.2-.8,1.9-1.4,1.5l1.4-1.5Z"/>
            <path class="st8" d="M75.2,64.2c0,0,.5,0,.6,0,0,.2-1,.2-.6,0Z"/>
          </g>
        </g>
        <path class="st9" d="M57.4,114.3c-.2.2-.2.5-.3,0,0,0,0-.3.3,0Z"/>
        <path class="st23" d="M68.8,103.6s-.1.4-.3.2c0-.3.3-.2.3-.2Z"/>
        <g>
          <path class="st24" d="M67.5,74.1l1.1,1.7c-.4.3-.6-.1-1,0-1.2.4-1.1.7-2.7.7s-.4-.1-.6-.1c-.4,0-.8,0-1.3,0-.1-2.8,2.2-3.6,4.5-2.3Z"/>
          <path class="st23" d="M68.6,75.7l-1.1-1.7c.7.4,1,.5,1.4,1.3-.2.1,0,.2-.3.3Z"/>
          <path class="st16" d="M67.2,74.6l.6.8c-1.5,1-2.3.9-4,.4l.3-.9c.5,1.6,3.1,1.5,3.1-.3Z"/>
          <path class="st3" d="M64.8,74.1c.7-.2.5.9.1,1s-.6-.9-.1-1Z"/>
          <path class="st13" d="M65.6,73.9c.3,0,.5.4.3.6s-.7-.5-.3-.6Z"/>
        </g>
      </g>
    </g>
  </g>
</svg>